<svg width="61" height="60" viewBox="0 0 61 60" fill="none" xmlns="http://www.w3.org/2000/svg">
<path d="M20 49.5C20 49.5 16.9268 49.087 14.9745 49.087C12.3328 49.087 10 47.1471 10 44.5055V36.0776C10 34.6969 10.8145 33.3671 12.1855 33.2037M20 49.5C20 49.5 22.971 49.087 24.9234 49.087C27.6229 49.087 30 47.1033 30 44.4038V35.8788C30 34.6098 29.2703 33.3959 28.0102 33.2458M20 49.5V47.0183M20 47.0183C20 47.0183 17.3952 46.6087 15.8333 46.6087C13.8762 46.6087 12.0968 45.1997 12.1113 43.2426L12.1855 33.2037M20 47.0183C20 47.0183 22.4688 46.6087 24.0307 46.6087C26.0659 46.6087 27.9294 45.1797 27.9432 43.1444L28.0102 33.2458M20 47.0183V30.913M12.1855 33.2037C12.1855 31.8796 13.1373 30.7377 14.4544 30.6012C15.0159 30.543 15.5979 30.5 16.0928 30.5C17.6273 30.5 20 30.913 20 30.913M28.0102 33.2458C28.0102 31.8987 27.0389 30.7388 25.6987 30.6026C25.1187 30.5437 24.5164 30.5 24.0051 30.5C22.4326 30.5 20 30.913 20 30.913" stroke="#385572" stroke-width="1.7" stroke-linecap="round" stroke-linejoin="round"/>
<path d="M16.0002 26.4728C16.1727 27.4945 17.6179 26.8533 17.0789 26.0512C17.4863 21.3021 21.3768 16.6908 26.5607 17.6324C26.979 17.6974 27.5572 17.9686 27.7765 17.4409C27.8852 17.1743 27.7511 16.8482 27.475 16.7447C21.2554 15.0499 16.1064 20.6176 16.0002 26.4728Z" fill="#385572"/>
<path d="M24.4301 19.0215C24.662 20.5914 26.5693 18.8276 27.2606 18.4726C28.8315 17.5774 27.4891 16.3528 26.9776 15.255C26.833 15.0004 26.4774 14.9283 26.2314 15.0757C25.4706 15.5808 26.7442 16.7699 26.9265 17.377C26.3802 17.8075 25.7695 18.1673 25.1636 18.5112C24.827 18.3736 24.4055 18.6565 24.4301 19.0215Z" fill="#385572"/>
<path d="M41 29.5C41 29.5 37.9268 29.087 35.9745 29.087C33.3328 29.087 31 27.1471 31 24.5055V16.0776C31 14.6969 31.8145 13.3671 33.1855 13.2037M41 29.5C41 29.5 43.971 29.087 45.9234 29.087C48.6229 29.087 51 27.1033 51 24.4038V15.8788C51 14.6098 50.2703 13.3959 49.0102 13.2458M41 29.5V27.0183M41 27.0183C41 27.0183 38.3952 26.6087 36.8333 26.6087C34.8762 26.6087 33.0968 25.1997 33.1113 23.2426L33.1855 13.2037M41 27.0183C41 27.0183 43.4688 26.6087 45.0307 26.6087C47.0659 26.6087 48.9294 25.1797 48.9432 23.1444L49.0102 13.2458M41 27.0183V10.913M33.1855 13.2037C33.1855 11.8796 34.1373 10.7377 35.4544 10.6012C36.0159 10.543 36.5979 10.5 37.0928 10.5C38.6273 10.5 41 10.913 41 10.913M49.0102 13.2458C49.0102 11.8987 48.0389 10.7388 46.6987 10.6026C46.1187 10.5437 45.5164 10.5 45.0051 10.5C43.4326 10.5 41 10.913 41 10.913" stroke="#4B7A25" stroke-width="1.7" stroke-linecap="round" stroke-linejoin="round"/>
<path d="M44.9998 33.5272C44.8273 32.5055 43.3821 33.1467 43.9211 33.9488C43.5137 38.6979 39.6232 43.3092 34.4393 42.3676C34.021 42.3026 33.4428 42.0314 33.2235 42.5591C33.1148 42.8257 33.2489 43.1518 33.525 43.2553C39.7446 44.9501 44.8936 39.3824 44.9998 33.5272Z" fill="#4B7A25"/>
<path d="M36.5699 40.9785C36.338 39.4086 34.4307 41.1724 33.7394 41.5274C32.1685 42.4226 33.5109 43.6472 34.0224 44.745C34.167 44.9996 34.5226 45.0717 34.7686 44.9243C35.5294 44.4192 34.2558 43.2301 34.0735 42.623C34.6198 42.1925 35.2305 41.8327 35.8364 41.4888C36.173 41.6264 36.5945 41.3435 36.5699 40.9785Z" fill="#4B7A25"/>
</svg>
